<svg id="Capa_1" enable-background="new 0 0 512.103 512.103" height="512" viewBox="0 0 512.103 512.103" width="512" xmlns="http://www.w3.org/2000/svg"><g><path d="m127.017 351.912c-3.172 2.664-3.584 7.395-.92 10.567 32.208 38.355 79.577 60.354 129.961 60.354 93.081 0 168.809-74.841 168.809-166.833s-75.728-166.833-168.809-166.833-168.808 74.841-168.808 166.833c0 26.6 6.147 52.026 18.272 75.571 1.896 3.683 6.419 5.13 10.102 3.234s5.131-6.419 3.234-10.102c-11.02-21.4-16.608-44.515-16.608-68.703 0-83.721 68.998-151.833 153.809-151.833s153.808 68.112 153.808 151.833-68.998 151.833-153.809 151.833c-45.941 0-89.123-20.047-118.475-55-2.662-3.172-7.393-3.584-10.566-.921zm365.731-22.716-17.093-9.869c5.908-20.516 8.903-41.82 8.903-63.327 0-21.479-2.986-42.753-8.877-63.239l17.066-9.853c6.823-3.898 9.268-13.025 5.308-19.808l-40.501-70.15c-3.997-6.922-12.882-9.304-19.807-5.306l-17.094 9.869c-9.337-9.693-19.581-18.608-30.454-26.504-3.352-2.433-8.042-1.691-10.476 1.662-2.435 3.352-1.69 8.042 1.661 10.476 10.262 7.452 19.925 15.875 28.72 25.037 4.633 4.828 11.913 5.864 17.702 2.52l17.008-9.819 40 69.282-16.979 9.803c-5.786 3.341-8.53 10.16-6.672 16.583 5.57 19.247 8.395 39.248 8.395 59.447 0 20.226-2.833 40.254-8.419 59.529-1.863 6.425.881 13.247 6.67 16.588l17.006 9.818-40 69.282-17.072-9.857c-5.787-3.341-13.066-2.307-17.698 2.515-28.132 29.286-63.73 49.85-102.948 59.469-6.499 1.594-11.038 7.381-11.038 14.073v19.685h-80v-19.685c0-6.691-4.539-12.479-11.038-14.073-39.218-9.619-74.816-30.183-102.948-59.468-4.632-4.823-11.912-5.857-17.699-2.515l-17.071 9.856-40-69.282 17.005-9.818c5.79-3.342 8.534-10.164 6.671-16.589-5.586-19.275-8.419-39.303-8.419-59.529 0-20.199 2.824-40.2 8.395-59.448 1.858-6.422-.886-13.241-6.672-16.582l-16.979-9.803 40-69.282 17.008 9.819c5.789 3.343 13.068 2.309 17.702-2.52 28.141-29.318 63.761-49.903 103.009-59.53 6.499-1.595 11.038-7.381 11.038-14.073v-19.58h80v19.582c0 6.691 4.539 12.478 11.039 14.073 15.564 3.818 30.718 9.418 45.036 16.645 3.697 1.867 8.209.382 10.075-3.316s.382-8.208-3.316-10.075c-15.212-7.678-31.304-13.642-47.834-17.727v-19.682c0-7.995-6.505-14.5-14.5-14.5h-81c-7.995 0-14.5 6.505-14.5 14.5v19.682c-41.735 10.314-79.615 32.205-109.596 63.332l-17.094-9.87c-6.925-3.997-15.81-1.616-19.808 5.308l-40.5 70.149c-3.985 6.807-1.559 15.887 5.308 19.807l17.066 9.854c-5.891 20.486-8.877 41.761-8.877 63.239 0 21.507 2.995 42.811 8.903 63.327l-17.093 9.868c-6.867 3.912-9.286 12.987-5.308 19.808l40.501 70.15c3.997 6.921 12.882 9.302 19.807 5.306l17.158-9.907c29.971 31.095 67.825 52.959 109.531 63.266v19.785c0 7.995 6.505 14.5 14.5 14.5h81c7.995 0 14.5-6.505 14.5-14.5v-19.785c41.7-10.307 79.563-32.176 109.531-63.266l17.158 9.907c6.923 3.996 15.808 1.616 19.808-5.308l40.5-70.148c3.977-6.818 1.508-15.917-5.308-19.808zm-236.69 44.59c65.701 0 119.153-52.838 119.153-117.786s-53.452-117.786-119.153-117.786-119.153 52.839-119.153 117.786 53.452 117.786 119.153 117.786zm0-220.572c57.431 0 104.153 46.109 104.153 102.786s-46.723 102.786-104.153 102.786-104.153-46.11-104.153-102.786 46.723-102.786 104.153-102.786zm-12.977 152.969c-6.598 0-11.966-6.339-11.966-14.131 0-4.142-3.357-7.5-7.5-7.5s-7.5 3.358-7.5 7.5c0 16.063 12.097 29.131 26.966 29.131h5.478v8.877c0 4.142 3.357 7.5 7.5 7.5s7.5-3.358 7.5-7.5v-8.877h5.478c14.869 0 26.966-13.068 26.966-29.131v-14.422c0-16.063-12.098-29.131-26.967-29.131h-5.477v-42.682h5.478c6.598 0 11.966 6.339 11.966 14.131 0 4.142 3.357 7.5 7.5 7.5s7.5-3.358 7.5-7.5c0-16.063-12.097-29.131-26.966-29.131h-5.478v-8.877c0-4.142-3.357-7.5-7.5-7.5s-7.5 3.358-7.5 7.5v8.877h-5.478c-14.869 0-26.966 13.068-26.966 29.131v14.421c0 16.063 12.098 29.131 26.967 29.131h5.477v42.683zm20.477-42.684h5.477c6.599 0 11.967 6.339 11.967 14.131v14.422c0 7.792-5.368 14.131-11.966 14.131h-5.478zm-20.476-14.999c-6.599 0-11.967-6.339-11.967-14.131v-14.421c0-7.792 5.368-14.131 11.966-14.131h5.478v42.683z"/></g></svg>