<?xml version="1.0" encoding="UTF-8"?>
<svg xmlns="http://www.w3.org/2000/svg" xmlns:xlink="http://www.w3.org/1999/xlink" width="100pt" height="100pt" viewBox="0 0 100 100" version="1.1">
<g id="surface1">
<path style=" stroke:none;fill-rule:nonzero;fill:rgb(0%,0%,0%);fill-opacity:1;" d="M 100 50 C 100 22.429688 77.570312 0 50 0 C 41.355469 0 32.933594 2.238281 25.46875 6.453125 L 19.355469 6.453125 L 19.355469 0 L 9.675781 0 L 9.675781 20.464844 C 3.355469 29.074219 0 39.269531 0 50 C 0 77.570312 22.429688 100 50 100 C 56.144531 100 62.140625 98.894531 67.824219 96.722656 C 71.070312 98.785156 74.910156 100 79.03125 100 C 84.0625 100 88.925781 98.191406 92.730469 94.910156 L 90.621094 92.46875 C 87.402344 95.246094 83.289062 96.773438 79.03125 96.773438 C 69.25 96.773438 61.289062 88.816406 61.289062 79.03125 C 61.289062 69.25 69.25 61.289062 79.03125 61.289062 C 88.816406 61.289062 96.773438 69.25 96.773438 79.03125 C 96.773438 83.121094 95.421875 86.964844 92.863281 90.148438 L 95.378906 92.167969 C 98.359375 88.460938 100 83.796875 100 79.03125 C 100 74.90625 98.785156 71.066406 96.722656 67.820312 C 98.890625 62.132812 100 56.144531 100 50 Z M 25.804688 16.128906 L 29.03125 16.128906 L 29.03125 38.710938 L 25.804688 38.710938 Z M 19.355469 9.675781 L 22.582031 9.675781 L 22.582031 38.710938 L 19.355469 38.710938 Z M 12.902344 3.226562 L 16.128906 3.226562 L 16.128906 38.710938 L 12.902344 38.710938 Z M 48.386719 96.734375 C 23.878906 95.898438 4.101562 76.121094 3.265625 51.613281 L 48.386719 51.613281 Z M 48.386719 48.386719 L 3.289062 48.386719 C 3.554688 40.535156 5.734375 33.03125 9.675781 26.34375 L 9.675781 41.933594 L 45.160156 41.933594 L 45.160156 25.804688 L 38.710938 25.804688 L 38.710938 19.355469 L 32.257812 19.355469 L 32.257812 12.902344 L 25.804688 12.902344 L 25.804688 9.988281 C 32.628906 5.851562 40.386719 3.554688 48.386719 3.28125 Z M 32.257812 38.710938 L 32.257812 22.582031 L 35.484375 22.582031 L 35.484375 38.710938 Z M 38.710938 38.710938 L 38.710938 29.03125 L 41.933594 29.03125 L 41.933594 38.710938 Z M 96.734375 48.386719 L 82.925781 48.386719 L 94.785156 36.527344 C 95.925781 40.300781 96.59375 44.277344 96.734375 48.386719 Z M 88.605469 23.628906 L 70.59375 41.644531 L 72.871094 43.925781 L 90.371094 26.425781 C 91.625 28.558594 92.710938 30.800781 93.617188 33.136719 L 78.363281 48.386719 L 68.410156 48.386719 L 70.496094 46.300781 L 68.214844 44.019531 L 63.847656 48.386719 L 53.894531 48.386719 L 84.171875 18.109375 C 85.78125 19.832031 87.269531 21.675781 88.605469 23.628906 Z M 51.613281 3.265625 C 55.722656 3.40625 59.699219 4.074219 63.472656 5.214844 L 51.613281 17.074219 Z M 51.613281 36.152344 L 71.214844 16.550781 L 68.933594 14.269531 L 51.613281 31.589844 L 51.613281 21.636719 L 66.863281 6.382812 C 69.199219 7.289062 71.441406 8.375 73.574219 9.628906 L 70.976562 12.226562 L 73.257812 14.507812 L 76.371094 11.394531 C 78.324219 12.730469 80.167969 14.214844 81.890625 15.828125 L 51.613281 46.105469 Z M 79.03125 58.066406 C 67.472656 58.066406 58.066406 67.472656 58.066406 79.03125 C 58.066406 85.097656 60.667969 90.554688 64.800781 94.386719 C 60.550781 95.804688 56.128906 96.585938 51.613281 96.738281 L 51.613281 51.613281 L 96.738281 51.613281 C 96.585938 56.128906 95.796875 60.546875 94.378906 64.796875 C 90.546875 60.667969 85.09375 58.066406 79.03125 58.066406 Z M 79.03125 58.066406 "/>
<path style=" stroke:none;fill-rule:nonzero;fill:rgb(0%,0%,0%);fill-opacity:1;" d="M 19.835938 77.890625 L 39.1875 58.535156 L 41.46875 60.816406 L 22.113281 80.171875 Z M 19.835938 77.890625 "/>
<path style=" stroke:none;fill-rule:nonzero;fill:rgb(0%,0%,0%);fill-opacity:1;" d="M 37.097656 70.96875 C 34.429688 70.96875 32.257812 73.140625 32.257812 75.804688 C 32.257812 78.472656 34.429688 80.644531 37.097656 80.644531 C 39.765625 80.644531 41.933594 78.472656 41.933594 75.804688 C 41.933594 73.140625 39.765625 70.96875 37.097656 70.96875 Z M 37.097656 77.417969 C 36.207031 77.417969 35.484375 76.695312 35.484375 75.804688 C 35.484375 74.917969 36.207031 74.195312 37.097656 74.195312 C 37.984375 74.195312 38.710938 74.917969 38.710938 75.804688 C 38.710938 76.695312 37.984375 77.417969 37.097656 77.417969 Z M 37.097656 77.417969 "/>
<path style=" stroke:none;fill-rule:nonzero;fill:rgb(0%,0%,0%);fill-opacity:1;" d="M 24.195312 58.066406 C 21.527344 58.066406 19.355469 60.234375 19.355469 62.902344 C 19.355469 65.570312 21.527344 67.742188 24.195312 67.742188 C 26.859375 67.742188 29.03125 65.570312 29.03125 62.902344 C 29.03125 60.234375 26.859375 58.066406 24.195312 58.066406 Z M 24.195312 64.515625 C 23.304688 64.515625 22.582031 63.792969 22.582031 62.902344 C 22.582031 62.011719 23.304688 61.289062 24.195312 61.289062 C 25.082031 61.289062 25.804688 62.011719 25.804688 62.902344 C 25.804688 63.792969 25.082031 64.515625 24.195312 64.515625 Z M 24.195312 64.515625 "/>
<path style=" stroke:none;fill-rule:nonzero;fill:rgb(0%,0%,0%);fill-opacity:1;" d="M 79.03125 77.417969 C 77.253906 77.417969 75.804688 75.972656 75.804688 74.195312 C 75.804688 72.414062 77.253906 70.96875 79.03125 70.96875 C 80.8125 70.96875 82.257812 72.414062 82.257812 74.195312 L 85.484375 74.195312 C 85.484375 71.195312 83.417969 68.691406 80.644531 67.972656 L 80.644531 64.515625 L 77.417969 64.515625 L 77.417969 67.972656 C 74.644531 68.691406 72.582031 71.195312 72.582031 74.195312 C 72.582031 77.75 75.472656 80.644531 79.03125 80.644531 C 80.8125 80.644531 82.257812 82.09375 82.257812 83.871094 C 82.257812 85.648438 80.8125 87.097656 79.03125 87.097656 C 77.253906 87.097656 75.804688 85.648438 75.804688 83.871094 L 72.582031 83.871094 C 72.582031 86.871094 74.644531 89.371094 77.417969 90.09375 L 77.417969 93.546875 L 80.644531 93.546875 L 80.644531 90.09375 C 83.417969 89.371094 85.484375 86.871094 85.484375 83.871094 C 85.484375 80.3125 82.589844 77.417969 79.03125 77.417969 Z M 79.03125 77.417969 "/>
<path style=" stroke:none;fill-rule:nonzero;fill:rgb(0%,0%,0%);fill-opacity:1;" d="M 90.324219 77.417969 L 93.546875 77.417969 L 93.546875 80.644531 L 90.324219 80.644531 Z M 90.324219 77.417969 "/>
<path style=" stroke:none;fill-rule:nonzero;fill:rgb(0%,0%,0%);fill-opacity:1;" d="M 64.515625 77.417969 L 67.742188 77.417969 L 67.742188 80.644531 L 64.515625 80.644531 Z M 64.515625 77.417969 "/>
</g>
</svg>
