<?xml version="1.0" encoding="UTF-8"?>
<svg xmlns="http://www.w3.org/2000/svg" xmlns:xlink="http://www.w3.org/1999/xlink" width="100pt" height="100pt" viewBox="0 0 100 100" version="1.1">
<g id="surface1">
<path style=" stroke:none;fill-rule:nonzero;fill:rgb(0%,0%,0%);fill-opacity:1;" d="M 64.386719 57.09375 C 64.953125 57.671875 65.882812 57.675781 66.457031 57.109375 C 70.851562 52.761719 73.273438 46.984375 73.273438 40.839844 C 73.273438 28.15625 62.832031 17.835938 50 17.835938 C 37.167969 17.835938 26.726562 28.15625 26.726562 40.839844 C 26.726562 53.527344 37.167969 63.847656 50 63.847656 C 53.675781 63.847656 57.191406 63.023438 60.449219 61.402344 C 61.175781 61.042969 61.46875 60.164062 61.109375 59.4375 C 60.75 58.714844 59.871094 58.417969 59.144531 58.777344 C 56.292969 60.199219 53.21875 60.917969 50 60.917969 C 38.78125 60.917969 29.65625 51.910156 29.65625 40.839844 C 29.65625 29.773438 38.785156 20.765625 50 20.765625 C 61.21875 20.765625 70.34375 29.773438 70.34375 40.839844 C 70.34375 46.195312 68.230469 51.234375 64.398438 55.023438 C 63.820312 55.59375 63.816406 56.519531 64.386719 57.09375 Z M 89.375 39.375 L 84.976562 39.375 C 84.167969 39.375 83.511719 40.03125 83.511719 40.839844 C 83.511719 41.652344 84.167969 42.304688 84.976562 42.304688 L 89.375 42.304688 C 90.1875 42.304688 90.839844 41.652344 90.839844 40.839844 C 90.839844 40.03125 90.1875 39.375 89.375 39.375 Z M 81.023438 24.621094 L 84.832031 22.421875 C 85.535156 22.015625 85.773438 21.121094 85.371094 20.421875 C 84.964844 19.71875 84.070312 19.480469 83.367188 19.882812 L 79.558594 22.085938 C 78.859375 22.488281 78.617188 23.382812 79.023438 24.085938 C 79.429688 24.792969 80.335938 25.019531 81.023438 24.621094 Z M 31.242188 11.28125 C 31.652344 11.992188 32.554688 12.21875 33.242188 11.820312 C 33.945312 11.414062 34.183594 10.519531 33.78125 9.816406 L 31.582031 6.007812 C 31.175781 5.308594 30.28125 5.066406 29.578125 5.472656 C 28.878906 5.875 28.636719 6.773438 29.042969 7.472656 Z M 50 7.328125 C 50.808594 7.328125 51.464844 6.671875 51.464844 5.863281 L 51.464844 1.464844 C 51.464844 0.65625 50.808594 0 50 0 C 49.191406 0 48.535156 0.65625 48.535156 1.464844 L 48.535156 5.863281 C 48.535156 6.671875 49.191406 7.328125 50 7.328125 Z M 66.757812 11.820312 C 67.445312 12.214844 68.347656 11.992188 68.757812 11.28125 L 70.957031 7.472656 C 71.363281 6.773438 71.121094 5.875 70.421875 5.472656 C 69.71875 5.066406 68.824219 5.308594 68.421875 6.007812 L 66.21875 9.816406 C 65.816406 10.519531 66.054688 11.414062 66.757812 11.820312 Z M 18.976562 57.0625 L 15.167969 59.261719 C 14.464844 59.664062 14.226562 60.5625 14.628906 61.261719 C 15.039062 61.96875 15.941406 62.199219 16.632812 61.796875 L 20.441406 59.597656 C 21.140625 59.195312 21.382812 58.296875 20.976562 57.597656 C 20.574219 56.898438 19.675781 56.65625 18.976562 57.0625 Z M 68.757812 70.402344 C 68.351562 69.699219 67.457031 69.460938 66.757812 69.863281 C 66.054688 70.269531 65.816406 71.164062 66.21875 71.867188 L 68.421875 75.675781 C 68.828125 76.382812 69.730469 76.609375 70.421875 76.210938 C 71.121094 75.808594 71.363281 74.910156 70.957031 74.210938 Z M 33.242188 69.863281 C 32.542969 69.460938 31.648438 69.699219 31.242188 70.402344 L 29.042969 74.210938 C 28.636719 74.910156 28.878906 75.808594 29.578125 76.210938 C 30.269531 76.609375 31.171875 76.382812 31.582031 75.675781 L 33.78125 71.867188 C 34.183594 71.164062 33.945312 70.269531 33.242188 69.863281 Z M 84.832031 59.261719 L 81.023438 57.0625 C 80.324219 56.65625 79.425781 56.898438 79.023438 57.597656 C 78.617188 58.296875 78.859375 59.195312 79.558594 59.597656 L 83.367188 61.796875 C 84.058594 62.195312 84.960938 61.96875 85.371094 61.261719 C 85.773438 60.5625 85.535156 59.664062 84.832031 59.261719 Z M 52.535156 31.039062 C 53.824219 31.039062 54.871094 32.277344 54.871094 33.800781 C 54.871094 34.609375 55.527344 35.265625 56.335938 35.265625 C 57.144531 35.265625 57.800781 34.609375 57.800781 33.800781 C 57.800781 30.664062 55.4375 28.109375 52.535156 28.109375 L 51.464844 28.109375 L 51.464844 26.375 C 51.464844 25.566406 50.808594 24.910156 50 24.910156 C 49.191406 24.910156 48.535156 25.566406 48.535156 26.375 L 48.535156 28.109375 L 47.464844 28.109375 C 44.5625 28.109375 42.199219 30.664062 42.199219 33.800781 L 42.199219 36.617188 C 42.199219 38.109375 42.726562 39.515625 43.6875 40.585938 C 44.6875 41.695312 46.027344 42.304688 47.464844 42.304688 L 48.535156 42.304688 L 48.535156 50.644531 L 47.464844 50.644531 C 46.175781 50.644531 45.128906 49.40625 45.128906 47.882812 C 45.128906 47.074219 44.472656 46.417969 43.664062 46.417969 C 42.855469 46.417969 42.199219 47.074219 42.199219 47.882812 C 42.199219 51.019531 44.5625 53.574219 47.464844 53.574219 L 48.535156 53.574219 L 48.535156 55.304688 C 48.535156 56.117188 49.191406 56.769531 50 56.769531 C 50.808594 56.769531 51.464844 56.117188 51.464844 55.304688 L 51.464844 53.574219 L 52.535156 53.574219 C 55.4375 53.574219 57.800781 51.019531 57.800781 47.882812 L 57.800781 45.066406 C 57.800781 43.574219 57.273438 42.167969 56.3125 41.097656 C 55.3125 39.988281 53.972656 39.375 52.535156 39.375 L 51.464844 39.375 L 51.464844 31.039062 Z M 48.535156 39.375 L 47.464844 39.375 C 46.871094 39.375 46.300781 39.109375 45.867188 38.625 C 45.390625 38.09375 45.128906 37.382812 45.128906 36.617188 L 45.128906 33.800781 C 45.128906 32.277344 46.175781 31.039062 47.464844 31.039062 L 48.535156 31.039062 Z M 52.535156 42.304688 C 53.128906 42.304688 53.699219 42.574219 54.132812 43.058594 C 54.609375 43.585938 54.871094 44.300781 54.871094 45.066406 L 54.871094 47.882812 C 54.871094 49.40625 53.824219 50.644531 52.535156 50.644531 L 51.464844 50.644531 L 51.464844 42.304688 Z M 50 10.257812 C 45.636719 10.257812 41.421875 11.136719 37.464844 12.871094 C 36.726562 13.195312 36.386719 14.058594 36.710938 14.800781 C 37.035156 15.542969 37.902344 15.878906 38.640625 15.554688 C 42.222656 13.984375 46.046875 13.1875 50 13.1875 C 65.445312 13.1875 78.015625 25.59375 78.015625 40.839844 C 78.015625 51.824219 71.425781 61.773438 61.234375 66.179688 C 58.878906 67.199219 57.355469 69.519531 57.355469 72.085938 L 57.355469 75.449219 L 42.648438 75.449219 L 42.648438 72.085938 C 42.648438 69.519531 41.125 67.199219 38.765625 66.179688 C 28.574219 61.773438 21.988281 51.824219 21.988281 40.839844 C 21.988281 32.117188 26.027344 24.082031 33.078125 18.800781 C 33.726562 18.316406 33.855469 17.398438 33.371094 16.75 C 32.886719 16.101562 31.96875 15.972656 31.320312 16.457031 C 27.59375 19.25 24.507812 22.898438 22.398438 27.007812 C 20.179688 31.316406 19.054688 35.972656 19.054688 40.839844 C 19.054688 52.996094 26.335938 63.996094 37.601562 68.871094 C 38.886719 69.425781 39.71875 70.6875 39.71875 72.085938 L 39.71875 75.859375 C 37.992188 76.613281 36.785156 78.335938 36.785156 80.332031 C 36.785156 81.664062 37.320312 82.871094 38.1875 83.75 C 37.320312 84.632812 36.785156 85.839844 36.785156 87.167969 C 36.785156 89.863281 38.976562 92.050781 41.667969 92.050781 L 42.523438 92.050781 L 44.628906 97.765625 C 45.121094 99.101562 46.410156 100 47.835938 100 L 52.164062 100 C 53.589844 100 54.878906 99.101562 55.371094 97.765625 L 57.476562 92.050781 L 58.332031 92.050781 C 61.023438 92.050781 63.214844 89.863281 63.214844 87.167969 C 63.214844 85.839844 62.679688 84.632812 61.8125 83.75 C 62.679688 82.871094 63.214844 81.664062 63.214844 80.332031 C 63.214844 78.335938 62.007812 76.613281 60.285156 75.859375 L 60.285156 72.085938 C 60.285156 70.6875 61.113281 69.425781 62.398438 68.871094 C 73.664062 63.996094 80.941406 52.996094 80.941406 40.839844 C 80.941406 23.976562 67.0625 10.257812 50 10.257812 Z M 52.621094 96.75 C 52.550781 96.941406 52.367188 97.070312 52.164062 97.070312 L 47.835938 97.070312 C 47.632812 97.070312 47.449219 96.941406 47.378906 96.75 L 45.648438 92.050781 L 54.351562 92.050781 Z M 58.332031 89.121094 L 41.667969 89.121094 C 40.59375 89.121094 39.714844 88.246094 39.714844 87.167969 C 39.714844 86.09375 40.59375 85.214844 41.667969 85.214844 L 58.332031 85.214844 C 59.40625 85.214844 60.285156 86.09375 60.285156 87.167969 C 60.285156 88.246094 59.40625 89.121094 58.332031 89.121094 Z M 60.285156 80.332031 C 60.285156 81.410156 59.40625 82.285156 58.332031 82.285156 L 41.667969 82.285156 C 40.59375 82.285156 39.714844 81.410156 39.714844 80.332031 C 39.714844 79.257812 40.59375 78.378906 41.667969 78.378906 L 58.332031 78.378906 C 59.40625 78.378906 60.285156 79.257812 60.285156 80.332031 Z M 15.167969 22.421875 L 18.976562 24.621094 C 19.664062 25.019531 20.566406 24.792969 20.976562 24.085938 C 21.382812 23.382812 21.140625 22.488281 20.441406 22.085938 L 16.632812 19.882812 C 15.929688 19.480469 15.035156 19.71875 14.628906 20.421875 C 14.226562 21.121094 14.464844 22.015625 15.167969 22.421875 Z M 16.488281 40.839844 C 16.488281 40.03125 15.832031 39.375 15.023438 39.375 L 10.625 39.375 C 9.8125 39.375 9.160156 40.03125 9.160156 40.839844 C 9.160156 41.652344 9.8125 42.304688 10.625 42.304688 L 15.023438 42.304688 C 15.832031 42.304688 16.488281 41.652344 16.488281 40.839844 Z M 16.488281 40.839844 "/>
</g>
</svg>
