<svg id="Capa_1" enable-background="new 0 0 512 512" height="512" viewBox="0 0 512 512" width="512" xmlns="http://www.w3.org/2000/svg"><g><path d="m329.654 292.33c2.912 2.946 7.661 2.972 10.606.061 22.501-22.247 34.893-51.823 34.893-83.281 0-64.947-53.452-117.785-119.153-117.785s-119.153 52.838-119.153 117.785 53.452 117.786 119.153 117.786c18.813 0 36.816-4.211 53.508-12.517 3.709-1.846 5.219-6.348 3.374-10.056s-6.349-5.218-10.056-3.374c-14.598 7.264-30.352 10.947-46.826 10.947-57.43 0-104.153-46.109-104.153-102.786 0-56.676 46.723-102.785 104.153-102.785 57.431 0 104.153 46.109 104.153 102.785 0 27.419-10.811 53.208-30.439 72.614-2.946 2.911-2.973 7.66-.06 10.606zm127.955-90.721h-22.524c-4.143 0-7.5 3.358-7.5 7.5s3.357 7.5 7.5 7.5h22.524c4.143 0 7.5-3.358 7.5-7.5s-3.357-7.5-7.5-7.5zm-42.767-75.547 19.507-11.262c3.587-2.071 4.816-6.658 2.745-10.245-2.07-3.587-6.66-4.816-10.245-2.745l-19.507 11.262c-3.587 2.071-4.816 6.658-2.745 10.245 2.092 3.623 6.713 4.79 10.245 2.745zm-254.88-68.295c2.091 3.625 6.71 4.785 10.245 2.745 3.587-2.071 4.816-6.658 2.745-10.245l-11.262-19.507c-2.071-3.587-6.659-4.816-10.245-2.745-3.587 2.071-4.816 6.658-2.745 10.245zm96.038-20.243c4.143 0 7.5-3.358 7.5-7.5v-22.524c0-4.142-3.357-7.5-7.5-7.5-4.142 0-7.5 3.358-7.5 7.5v22.524c0 4.143 3.358 7.5 7.5 7.5zm85.792 22.988c3.524 2.035 8.153.882 10.245-2.745l11.263-19.507c2.071-3.587.842-8.174-2.745-10.245-3.586-2.072-8.175-.843-10.245 2.745l-11.263 19.507c-2.072 3.587-.842 8.174 2.745 10.245zm-244.634 231.644-19.507 11.262c-3.587 2.071-4.816 6.658-2.745 10.245 2.093 3.624 6.713 4.79 10.245 2.745l19.507-11.262c3.587-2.071 4.816-6.658 2.745-10.245s-6.658-4.816-10.245-2.745zm254.879 68.295c-2.071-3.587-6.659-4.815-10.245-2.745-3.587 2.071-4.816 6.658-2.745 10.245l11.263 19.506c2.092 3.625 6.711 4.786 10.245 2.745 3.587-2.071 4.816-6.658 2.745-10.245zm-181.83-2.745c-3.588-2.072-8.174-.842-10.245 2.745l-11.262 19.507c-2.071 3.587-.842 8.174 2.745 10.245 3.527 2.036 8.153.881 10.245-2.745l11.262-19.506c2.072-3.588.843-8.175-2.745-10.246zm264.141-54.288-19.507-11.262c-3.59-2.072-8.175-.842-10.245 2.745-2.071 3.587-.842 8.174 2.745 10.245l19.507 11.262c3.522 2.038 8.151.881 10.245-2.745 2.072-3.587.842-8.174-2.745-10.245zm-165.371-144.492c6.598 0 11.966 6.339 11.966 14.131 0 4.142 3.357 7.5 7.5 7.5s7.5-3.358 7.5-7.5c0-16.063-12.097-29.131-26.966-29.131h-5.477v-8.877c0-4.142-3.357-7.5-7.5-7.5-4.142 0-7.5 3.358-7.5 7.5v8.877h-5.478c-14.869 0-26.966 13.068-26.966 29.131v14.421c0 7.634 2.708 14.848 7.627 20.313 5.118 5.687 11.986 8.818 19.34 8.818h5.477v42.684h-5.478c-6.598 0-11.966-6.339-11.966-14.131 0-4.142-3.358-7.5-7.5-7.5s-7.5 3.358-7.5 7.5c0 16.063 12.097 29.131 26.966 29.131h5.478v8.877c0 4.142 3.358 7.5 7.5 7.5 4.143 0 7.5-3.358 7.5-7.5v-8.877h5.478c14.869 0 26.966-13.068 26.966-29.131v-14.422c0-7.634-2.708-14.848-7.626-20.313-5.118-5.687-11.987-8.819-19.341-8.818h-5.477v-42.683zm-20.477 42.683h-5.478c-3.045 0-5.954-1.368-8.189-3.853-2.436-2.706-3.777-6.356-3.777-10.278v-14.421c0-7.792 5.368-14.131 11.966-14.131h5.478zm20.476 14.999c3.046 0 5.955 1.368 8.19 3.853 2.436 2.706 3.776 6.356 3.776 10.279v14.421c0 7.792-5.368 14.131-11.966 14.131h-5.476v-42.684zm-12.976-164.088c-22.331 0-43.924 4.502-64.177 13.381-3.793 1.663-5.521 6.087-3.858 9.88 1.664 3.794 6.086 5.52 9.88 3.858 18.343-8.041 37.909-12.119 58.155-12.119 79.088 0 143.43 63.517 143.43 141.59 0 56.238-33.721 107.163-85.906 129.736-12.072 5.22-19.873 17.091-19.873 30.244v17.219h-75.3v-17.219c0-13.152-7.801-25.024-19.873-30.244-52.187-22.574-85.908-73.499-85.908-129.736 0-44.669 20.698-85.8 56.786-112.846 3.314-2.484 3.988-7.185 1.503-10.5-2.483-3.314-7.185-3.988-10.5-1.503-19.075 14.296-34.874 32.973-45.689 54.012-11.347 22.075-17.101 45.908-17.101 70.837 0 62.224 37.271 118.553 94.954 143.504 6.577 2.844 10.827 9.311 10.827 16.476v19.311c-8.822 3.865-15.004 12.676-15.004 22.908 0 6.809 2.739 12.987 7.169 17.5-4.43 4.513-7.169 10.691-7.169 17.5 0 13.785 11.215 25 25 25h4.378l10.78 29.244c2.524 6.847 9.123 11.447 16.42 11.447h22.152c7.297 0 13.896-4.6 16.42-11.447l10.779-29.244h4.378c13.785 0 25-11.215 25-25 0-6.809-2.739-12.987-7.169-17.5 4.43-4.513 7.169-10.691 7.169-17.5 0-10.232-6.181-19.042-15.003-22.908v-19.311c0-7.165 4.249-13.632 10.827-16.476 57.682-24.951 94.952-81.279 94.952-143.504 0-86.344-71.071-156.59-158.429-156.59zm13.422 442.844c-.36.979-1.304 1.636-2.346 1.636h-22.152c-1.042 0-1.985-.657-2.346-1.635l-8.868-24.056h44.578zm29.231-39.055h-85.307c-5.514 0-10-4.486-10-10s4.486-10 10-10h85.307c5.514 0 10 4.486 10 10s-4.486 10-10 10zm10-45c0 5.514-4.486 10-10 10h-85.307c-5.514 0-10-4.486-10-10s4.486-10 10-10h85.307c5.514 0 10 4.486 10 10zm-231.002-296.509 19.507 11.262c3.523 2.039 8.151.881 10.245-2.745 2.071-3.587.842-8.174-2.745-10.245l-19.507-11.262c-3.587-2.072-8.174-.842-10.245 2.745s-.842 8.174 2.745 10.245zm6.764 94.309c0-4.142-3.358-7.5-7.5-7.5h-22.524c-4.142 0-7.5 3.358-7.5 7.5s3.358 7.5 7.5 7.5h22.524c4.142 0 7.5-3.358 7.5-7.5z"/></g></svg>