<?xml version="1.0" encoding="UTF-8"?>
<svg xmlns="http://www.w3.org/2000/svg" xmlns:xlink="http://www.w3.org/1999/xlink" width="100pt" height="100pt" viewBox="0 0 100 100" version="1.1">
<g id="surface1">
<path style=" stroke:none;fill-rule:nonzero;fill:rgb(0%,0%,0%);fill-opacity:1;" d="M 60 56.667969 L 63.332031 56.667969 L 63.332031 48.332031 C 63.332031 39.332031 56.332031 32 47.5 31.667969 C 48 30.667969 48.332031 29.5 48.332031 28.332031 L 48.332031 25 C 48.332031 21.332031 45.332031 18.332031 41.667969 18.332031 L 21.667969 18.332031 C 18 18.332031 15 21.332031 15 25 L 15 28.332031 C 15 29.5 15.332031 30.667969 15.832031 31.667969 C 7 32.167969 0 39.332031 0 48.332031 L 0 83.332031 C 0 92.5 7.5 100 16.667969 100 L 46.667969 100 L 46.667969 96.667969 L 16.667969 96.667969 C 9.332031 96.667969 3.332031 90.667969 3.332031 83.332031 L 3.332031 48.332031 C 3.332031 41 9.332031 35 16.667969 35 L 35 35 L 35 31.667969 L 21.667969 31.667969 C 19.832031 31.667969 18.332031 30.167969 18.332031 28.332031 L 18.332031 25 C 18.332031 23.167969 19.832031 21.667969 21.667969 21.667969 L 41.667969 21.667969 C 43.5 21.667969 45 23.167969 45 25 L 45 28.332031 C 45 30.167969 43.5 31.667969 41.667969 31.667969 C 40.667969 31.667969 40 32.332031 40 33.332031 C 40 34.332031 40.667969 35 41.667969 35 L 46.667969 35 C 54 35 60 41 60 48.332031 Z M 60 56.667969 "/>
<path style=" stroke:none;fill-rule:nonzero;fill:rgb(0%,0%,0%);fill-opacity:1;" d="M 30 53.332031 L 33.332031 53.332031 C 36.167969 53.332031 38.332031 55.5 38.332031 58.332031 L 41.667969 58.332031 C 41.667969 53.667969 38 50 33.332031 50 L 33.332031 46.667969 L 30 46.667969 L 30 50 C 25.332031 50 21.667969 53.667969 21.667969 58.332031 C 21.667969 63 25.332031 66.667969 30 66.667969 L 33.332031 66.667969 C 36.167969 66.667969 38.332031 68.832031 38.332031 71.667969 C 38.332031 74.5 36.167969 76.667969 33.332031 76.667969 L 30 76.667969 C 27.167969 76.667969 25 74.5 25 71.667969 L 21.667969 71.667969 C 21.667969 76.332031 25.332031 80 30 80 L 30 83.332031 L 33.332031 83.332031 L 33.332031 80 C 38 80 41.667969 76.332031 41.667969 71.667969 C 41.667969 67 38 63.332031 33.332031 63.332031 L 30 63.332031 C 27.167969 63.332031 25 61.167969 25 58.332031 C 25 55.5 27.167969 53.332031 30 53.332031 Z M 30 53.332031 "/>
<path style=" stroke:none;fill-rule:nonzero;fill:rgb(0%,0%,0%);fill-opacity:1;" d="M 16.667969 38.332031 L 20 38.332031 L 20 41.667969 L 16.667969 41.667969 Z M 16.667969 38.332031 "/>
<path style=" stroke:none;fill-rule:nonzero;fill:rgb(0%,0%,0%);fill-opacity:1;" d="M 23.332031 38.332031 L 26.667969 38.332031 L 26.667969 41.667969 L 23.332031 41.667969 Z M 23.332031 38.332031 "/>
<path style=" stroke:none;fill-rule:nonzero;fill:rgb(0%,0%,0%);fill-opacity:1;" d="M 30 38.332031 L 33.332031 38.332031 L 33.332031 41.667969 L 30 41.667969 Z M 30 38.332031 "/>
<path style=" stroke:none;fill-rule:nonzero;fill:rgb(0%,0%,0%);fill-opacity:1;" d="M 36.667969 38.332031 L 40 38.332031 L 40 41.667969 L 36.667969 41.667969 Z M 36.667969 38.332031 "/>
<path style=" stroke:none;fill-rule:nonzero;fill:rgb(0%,0%,0%);fill-opacity:1;" d="M 43.332031 38.332031 L 46.667969 38.332031 L 46.667969 41.667969 L 43.332031 41.667969 Z M 43.332031 38.332031 "/>
<path style=" stroke:none;fill-rule:nonzero;fill:rgb(0%,0%,0%);fill-opacity:1;" d="M 16.667969 88.332031 L 20 88.332031 L 20 91.667969 L 16.667969 91.667969 Z M 16.667969 88.332031 "/>
<path style=" stroke:none;fill-rule:nonzero;fill:rgb(0%,0%,0%);fill-opacity:1;" d="M 23.332031 88.332031 L 26.667969 88.332031 L 26.667969 91.667969 L 23.332031 91.667969 Z M 23.332031 88.332031 "/>
<path style=" stroke:none;fill-rule:nonzero;fill:rgb(0%,0%,0%);fill-opacity:1;" d="M 30 88.332031 L 33.332031 88.332031 L 33.332031 91.667969 L 30 91.667969 Z M 30 88.332031 "/>
<path style=" stroke:none;fill-rule:nonzero;fill:rgb(0%,0%,0%);fill-opacity:1;" d="M 36.667969 88.332031 L 40 88.332031 L 40 91.667969 L 36.667969 91.667969 Z M 36.667969 88.332031 "/>
<path style=" stroke:none;fill-rule:nonzero;fill:rgb(0%,0%,0%);fill-opacity:1;" d="M 43.332031 88.332031 L 46.667969 88.332031 L 46.667969 91.667969 L 43.332031 91.667969 Z M 43.332031 88.332031 "/>
<path style=" stroke:none;fill-rule:nonzero;fill:rgb(0%,0%,0%);fill-opacity:1;" d="M 98.332031 50 L 78.332031 50 C 77.332031 50 76.667969 50.667969 76.667969 51.667969 L 76.667969 63.332031 L 58.332031 63.332031 C 57.332031 63.332031 56.667969 64 56.667969 65 L 56.667969 98.332031 C 56.667969 99.332031 57.332031 100 58.332031 100 L 98.332031 100 C 99.332031 100 100 99.332031 100 98.332031 L 100 51.667969 C 100 50.667969 99.332031 50 98.332031 50 Z M 80 60 L 96.667969 60 L 96.667969 63.332031 L 80 63.332031 Z M 96.667969 66.667969 L 96.667969 70 L 80 70 L 80 66.667969 Z M 96.667969 76.667969 L 80 76.667969 L 80 73.332031 L 96.667969 73.332031 Z M 96.667969 83.332031 L 80 83.332031 L 80 80 L 96.667969 80 Z M 60 80 L 76.667969 80 L 76.667969 83.332031 L 60 83.332031 Z M 76.667969 76.667969 L 60 76.667969 L 60 73.332031 L 76.667969 73.332031 Z M 60 86.667969 L 76.667969 86.667969 L 76.667969 90 L 60 90 Z M 80 86.667969 L 96.667969 86.667969 L 96.667969 90 L 80 90 Z M 80 53.332031 L 96.667969 53.332031 L 96.667969 56.667969 L 80 56.667969 Z M 60 66.667969 L 76.667969 66.667969 L 76.667969 70 L 60 70 Z M 60 93.332031 L 76.667969 93.332031 L 76.667969 96.667969 L 60 96.667969 Z M 96.667969 96.667969 L 80 96.667969 L 80 93.332031 L 96.667969 93.332031 Z M 96.667969 96.667969 "/>
<path style=" stroke:none;fill-rule:nonzero;fill:rgb(0%,0%,0%);fill-opacity:1;" d="M 98.332031 0 L 61.667969 0 C 60.667969 0 60 0.667969 60 1.667969 L 60 31.667969 C 60 32.167969 60.332031 32.667969 60.667969 33 L 79 46.332031 C 79.332031 46.5 79.667969 46.667969 80 46.667969 C 80.332031 46.667969 80.667969 46.5 81 46.332031 L 99.332031 33 C 99.667969 32.667969 100 32.167969 100 31.667969 L 100 1.667969 C 100 0.667969 99.332031 0 98.332031 0 Z M 96.667969 3.332031 L 96.667969 13.332031 L 63.332031 13.332031 L 63.332031 3.332031 Z M 80 43 L 63.332031 30.832031 L 63.332031 16.667969 L 96.667969 16.667969 L 96.667969 30.832031 Z M 80 43 "/>
<path style=" stroke:none;fill-rule:nonzero;fill:rgb(0%,0%,0%);fill-opacity:1;" d="M 68.332031 6.667969 L 71.667969 6.667969 L 71.667969 10 L 68.332031 10 Z M 68.332031 6.667969 "/>
<path style=" stroke:none;fill-rule:nonzero;fill:rgb(0%,0%,0%);fill-opacity:1;" d="M 75 6.667969 L 78.332031 6.667969 L 78.332031 10 L 75 10 Z M 75 6.667969 "/>
<path style=" stroke:none;fill-rule:nonzero;fill:rgb(0%,0%,0%);fill-opacity:1;" d="M 81.667969 6.667969 L 85 6.667969 L 85 10 L 81.667969 10 Z M 81.667969 6.667969 "/>
<path style=" stroke:none;fill-rule:nonzero;fill:rgb(0%,0%,0%);fill-opacity:1;" d="M 88.332031 6.667969 L 91.667969 6.667969 L 91.667969 10 L 88.332031 10 Z M 88.332031 6.667969 "/>
<path style=" stroke:none;fill-rule:nonzero;fill:rgb(0%,0%,0%);fill-opacity:1;" d="M 78 29.332031 L 74.167969 26.832031 L 72.332031 29.667969 L 77.332031 33 C 77.667969 33.167969 78 33.332031 78.332031 33.332031 C 78.832031 33.332031 79.167969 33.167969 79.332031 32.667969 L 89.332031 22.667969 L 87 20.332031 Z M 78 29.332031 "/>
</g>
</svg>
