<?xml version="1.0" encoding="UTF-8"?>
<svg xmlns="http://www.w3.org/2000/svg" xmlns:xlink="http://www.w3.org/1999/xlink" width="100pt" height="100pt" viewBox="0 0 100 100" version="1.1">
<g id="surface1">
<path style=" stroke:none;fill-rule:nonzero;fill:rgb(0%,0%,0%);fill-opacity:1;" d="M 24.804688 68.71875 C 24.183594 69.238281 24.101562 70.164062 24.625 70.78125 C 30.914062 78.273438 40.164062 82.566406 50 82.566406 C 68.175781 82.566406 82.964844 67.953125 82.964844 49.988281 C 82.964844 32.027344 68.175781 17.410156 50 17.410156 C 31.824219 17.410156 17.039062 32.027344 17.039062 49.988281 C 17.039062 55.183594 18.238281 60.148438 20.605469 64.746094 C 20.976562 65.464844 21.859375 65.75 22.578125 65.378906 C 23.296875 65.007812 23.582031 64.125 23.210938 63.40625 C 21.058594 59.226562 19.964844 54.714844 19.964844 49.988281 C 19.964844 33.640625 33.441406 20.339844 50 20.339844 C 66.5625 20.339844 80.035156 33.640625 80.035156 49.988281 C 80.035156 66.339844 66.5625 79.640625 50 79.640625 C 41.03125 79.640625 32.597656 75.722656 26.867188 68.898438 C 26.347656 68.28125 25.421875 68.199219 24.804688 68.71875 Z M 96.21875 64.28125 L 92.882812 62.355469 C 94.035156 58.351562 94.621094 54.191406 94.621094 49.988281 C 94.621094 45.796875 94.039062 41.640625 92.886719 37.640625 L 96.21875 35.71875 C 97.550781 34.957031 98.03125 33.171875 97.257812 31.847656 L 89.347656 18.152344 C 88.566406 16.800781 86.832031 16.332031 85.480469 17.113281 L 82.140625 19.042969 C 80.320312 17.148438 78.320312 15.40625 76.195312 13.867188 C 75.539062 13.390625 74.625 13.535156 74.148438 14.191406 C 73.675781 14.84375 73.820312 15.761719 74.472656 16.238281 C 76.476562 17.691406 78.363281 19.335938 80.082031 21.125 C 80.988281 22.066406 82.410156 22.269531 83.539062 21.617188 L 86.859375 19.699219 L 94.671875 33.230469 L 91.355469 35.144531 C 90.226562 35.796875 89.691406 37.128906 90.054688 38.382812 C 91.140625 42.140625 91.691406 46.046875 91.691406 49.988281 C 91.691406 53.941406 91.140625 57.851562 90.046875 61.613281 C 89.683594 62.867188 90.21875 64.199219 91.351562 64.855469 L 94.671875 66.769531 L 86.859375 80.300781 L 83.527344 78.375 C 82.398438 77.722656 80.976562 77.925781 80.070312 78.867188 C 74.578125 84.585938 67.625 88.601562 59.96875 90.480469 C 58.699219 90.789062 57.8125 91.921875 57.8125 93.226562 L 57.8125 97.070312 L 42.191406 97.070312 L 42.191406 93.226562 C 42.191406 91.921875 41.304688 90.789062 40.035156 90.480469 C 32.375 88.601562 25.425781 84.585938 19.933594 78.867188 C 19.027344 77.925781 17.605469 77.722656 16.476562 78.375 L 13.140625 80.300781 L 5.332031 66.769531 L 8.652344 64.855469 C 9.78125 64.199219 10.320312 62.867188 9.953125 61.613281 C 8.863281 57.851562 8.3125 53.9375 8.3125 49.988281 C 8.3125 46.046875 8.863281 42.140625 9.949219 38.382812 C 10.3125 37.128906 9.777344 35.796875 8.648438 35.144531 L 5.332031 33.230469 L 13.144531 19.699219 L 16.464844 21.617188 C 17.59375 22.269531 19.015625 22.066406 19.921875 21.125 C 25.414062 15.398438 32.371094 11.378906 40.035156 9.5 C 41.304688 9.1875 42.191406 8.058594 42.191406 6.753906 L 42.191406 2.929688 L 57.8125 2.929688 L 57.8125 6.753906 C 57.8125 8.058594 58.699219 9.191406 59.96875 9.5 C 63.007812 10.246094 65.96875 11.339844 68.761719 12.75 C 69.484375 13.117188 70.367188 12.824219 70.730469 12.105469 C 71.09375 11.382812 70.804688 10.5 70.082031 10.136719 C 67.113281 8.636719 63.96875 7.472656 60.742188 6.675781 L 60.742188 2.832031 C 60.742188 1.269531 59.472656 0 57.910156 0 L 42.09375 0 C 40.53125 0 39.261719 1.269531 39.261719 2.832031 L 39.261719 6.675781 C 31.113281 8.6875 23.714844 12.964844 17.859375 19.042969 L 14.523438 17.113281 C 13.171875 16.335938 11.433594 16.800781 10.65625 18.152344 L 2.746094 31.847656 C 1.96875 33.179688 2.441406 34.953125 3.78125 35.71875 L 7.113281 37.640625 C 5.964844 41.640625 5.382812 45.796875 5.382812 49.988281 C 5.382812 54.191406 5.964844 58.351562 7.121094 62.355469 L 3.78125 64.28125 C 2.441406 65.046875 1.96875 66.820312 2.746094 68.152344 L 10.65625 81.847656 C 11.433594 83.199219 13.171875 83.664062 14.523438 82.886719 L 17.871094 80.949219 C 23.726562 87.023438 31.117188 91.292969 39.261719 93.304688 L 39.261719 97.167969 C 39.261719 98.730469 40.53125 100 42.09375 100 L 57.910156 100 C 59.472656 100 60.742188 98.730469 60.742188 97.167969 L 60.742188 93.304688 C 68.882812 91.292969 76.277344 87.023438 82.128906 80.949219 L 85.480469 82.886719 C 86.832031 83.664062 88.566406 83.203125 89.347656 81.847656 L 97.257812 68.152344 C 98.035156 66.820312 97.550781 65.042969 96.21875 64.28125 Z M 50 72.992188 C 62.832031 72.992188 73.269531 62.671875 73.269531 49.988281 C 73.269531 37.308594 62.832031 26.988281 50 26.988281 C 37.171875 26.988281 26.734375 37.308594 26.734375 49.988281 C 26.734375 62.671875 37.171875 72.992188 50 72.992188 Z M 50 29.917969 C 61.214844 29.917969 70.339844 38.921875 70.339844 49.988281 C 70.339844 61.058594 61.214844 70.0625 50 70.0625 C 38.785156 70.0625 29.664062 61.058594 29.664062 49.988281 C 29.664062 38.921875 38.785156 29.917969 50 29.917969 Z M 47.46875 59.789062 C 46.179688 59.789062 45.128906 58.550781 45.128906 57.03125 C 45.128906 56.222656 44.476562 55.566406 43.667969 55.566406 C 42.855469 55.566406 42.203125 56.222656 42.203125 57.03125 C 42.203125 60.167969 44.5625 62.71875 47.46875 62.71875 L 48.535156 62.71875 L 48.535156 64.453125 C 48.535156 65.261719 49.191406 65.917969 50 65.917969 C 50.808594 65.917969 51.464844 65.261719 51.464844 64.453125 L 51.464844 62.71875 L 52.535156 62.71875 C 55.4375 62.71875 57.800781 60.167969 57.800781 57.03125 L 57.800781 54.214844 C 57.800781 51.078125 55.4375 48.523438 52.535156 48.523438 L 51.464844 48.523438 L 51.464844 40.191406 L 52.535156 40.191406 C 53.824219 40.191406 54.871094 41.429688 54.871094 42.949219 C 54.871094 43.757812 55.527344 44.414062 56.335938 44.414062 C 57.144531 44.414062 57.800781 43.757812 57.800781 42.949219 C 57.800781 39.8125 55.4375 37.261719 52.535156 37.261719 L 51.464844 37.261719 L 51.464844 35.527344 C 51.464844 34.71875 50.808594 34.0625 50 34.0625 C 49.191406 34.0625 48.535156 34.71875 48.535156 35.527344 L 48.535156 37.261719 L 47.46875 37.261719 C 44.5625 37.261719 42.203125 39.8125 42.203125 42.949219 L 42.203125 45.765625 C 42.203125 48.902344 44.5625 51.453125 47.46875 51.453125 L 48.535156 51.453125 L 48.535156 59.789062 Z M 51.464844 51.453125 L 52.535156 51.453125 C 53.824219 51.453125 54.871094 52.691406 54.871094 54.214844 L 54.871094 57.03125 C 54.871094 58.550781 53.824219 59.789062 52.535156 59.789062 L 51.464844 59.789062 Z M 47.46875 48.527344 C 46.179688 48.527344 45.128906 47.289062 45.128906 45.765625 L 45.128906 42.949219 C 45.128906 41.429688 46.179688 40.191406 47.46875 40.191406 L 48.535156 40.191406 L 48.535156 48.527344 Z M 47.46875 48.527344 "/>
</g>
</svg>
