<svg id="Capa_1" enable-background="new 0 0 512 512" height="512" viewBox="0 0 512 512" width="512" xmlns="http://www.w3.org/2000/svg"><g><g><path d="m400.128 294.202h-26.838c11.014-11.558 17.784-27.195 17.784-44.383v-45.958c0-5.523-4.477-10-10-10h-27.574c-35.501 0-64.383 28.882-64.383 64.383v35.958h-23.117v-115.542c0-5.523-4.478-10-10-10-5.523 0-10 4.477-10 10v115.542h-23.117v-35.958c0-35.501-28.882-64.383-64.383-64.383h-27.574c-5.522 0-10 4.477-10 10v45.958c0 17.188 6.77 32.825 17.784 44.383h-26.838c-5.522 0-10 4.477-10 10v46.189c0 5.523 4.478 10 10 10h8.83v65.335c0 23.791 18.451 43.353 41.795 45.129l-18.443 25.245c-2.222 3.04-2.547 7.07-.842 10.427s5.151 5.472 8.916 5.472h207.744c3.765 0 7.211-2.115 8.916-5.472s1.38-7.387-.842-10.427l-18.443-25.245c23.344-1.776 41.795-21.338 41.795-45.129v-65.335h8.83c5.522 0 10-4.477 10-10v-46.189c0-5.523-4.478-10-10-10zm-91.011-35.957c0-24.473 19.91-44.383 44.383-44.383h17.574v35.958c0 24.473-19.91 44.383-44.383 44.383h-17.574zm-168.191-8.426v-35.958h17.574c24.473 0 44.383 19.91 44.383 44.383v35.958h-17.574c-24.473 0-44.383-19.91-44.383-44.383zm-19.054 64.383h268.256v26.189h-268.256zm49.946 177.798 15.351-21.013h137.661l15.352 21.013zm199.48-66.273c0 13.929-11.332 25.261-25.261 25.261h-180.074c-13.929 0-25.261-11.332-25.261-25.261v-65.335h230.596z" fill="#020288"/></g><g><g><ellipse cx="256" cy="98.357" fill="#fff59b" rx="98.872" ry="98.357"/></g><path d="m267.276 89.982c-.843-.296-1.649-.582-2.438-.863v-20.919c1.262.68 2.189 1.464 2.721 2.218 3.185 4.513 9.421 5.592 13.936 2.408 4.514-3.183 5.592-9.422 2.408-13.936-3.785-5.368-10.438-9.906-19.067-11.716-.026-5.501-4.491-9.953-9.998-9.953-5.522 0-10 4.477-10 10v.634c-.736.187-1.476.386-2.224.61-10.797 3.235-18.94 13.655-19.804 25.339-.855 11.591 5.312 21.644 16.497 26.892 1.277.599 3.166 1.391 5.53 2.323v26.13c-2.715-1.124-5.085-2.673-6.702-4.67-3.476-4.293-9.773-4.954-14.064-1.478-4.292 3.476-4.954 9.772-1.479 14.064 5.756 7.109 14.046 11.097 22.273 12.98.289 5.264 4.637 9.446 9.972 9.446 5.086 0 9.277-3.801 9.908-8.716 14.683-2.497 24.995-12.153 26.661-25.338 1.923-15.203-8-29.783-24.13-35.455zm-24.519-14.704c.137-1.861.928-3.698 2.081-5.132v10.489c-1.542-1.45-2.239-3.217-2.081-5.357zm28.808 47.653c-.426 3.364-2.811 5.878-6.728 7.269v-19.341c5.223 3.301 7.212 8.244 6.728 12.072z" fill="#020288"/></g></g></svg>