<?xml version="1.0" encoding="UTF-8"?>
<svg xmlns="http://www.w3.org/2000/svg" xmlns:xlink="http://www.w3.org/1999/xlink" width="100pt" height="100pt" viewBox="0 0 100 100" version="1.1">
<g id="surface1">
<path style=" stroke:none;fill-rule:nonzero;fill:rgb(0%,0%,0%);fill-opacity:1;" d="M 51.5625 60.714844 C 54.25 60.015625 56.25 57.59375 56.25 54.6875 C 56.25 51.242188 53.445312 48.4375 50 48.4375 C 48.277344 48.4375 46.875 47.035156 46.875 45.3125 C 46.875 43.589844 48.277344 42.1875 50 42.1875 C 51.722656 42.1875 53.125 43.589844 53.125 45.3125 L 56.25 45.3125 C 56.25 42.40625 54.25 39.984375 51.5625 39.285156 L 51.5625 35.9375 L 48.4375 35.9375 L 48.4375 39.285156 C 45.75 39.984375 43.75 42.40625 43.75 45.3125 C 43.75 48.757812 46.554688 51.5625 50 51.5625 C 51.722656 51.5625 53.125 52.964844 53.125 54.6875 C 53.125 56.410156 51.722656 57.8125 50 57.8125 C 48.277344 57.8125 46.875 56.410156 46.875 54.6875 L 43.75 54.6875 C 43.75 57.59375 45.75 60.015625 48.4375 60.714844 L 48.4375 64.0625 L 51.5625 64.0625 Z M 51.5625 60.714844 "/>
<path style=" stroke:none;fill-rule:nonzero;fill:rgb(0%,0%,0%);fill-opacity:1;" d="M 50 29.6875 C 38.800781 29.6875 29.6875 38.800781 29.6875 50 L 32.8125 50 C 32.8125 40.523438 40.523438 32.8125 50 32.8125 Z M 50 29.6875 "/>
<path style=" stroke:none;fill-rule:nonzero;fill:rgb(0%,0%,0%);fill-opacity:1;" d="M 67.1875 50 C 67.1875 59.476562 59.476562 67.1875 50 67.1875 L 50 70.3125 C 61.199219 70.3125 70.3125 61.199219 70.3125 50 Z M 67.1875 50 "/>
<path style=" stroke:none;fill-rule:nonzero;fill:rgb(0%,0%,0%);fill-opacity:1;" d="M 33.75 12.757812 C 28.851562 14.894531 24.476562 17.941406 20.75 21.804688 L 23 23.976562 C 26.441406 20.40625 30.480469 17.59375 35 15.617188 Z M 33.75 12.757812 "/>
<path style=" stroke:none;fill-rule:nonzero;fill:rgb(0%,0%,0%);fill-opacity:1;" d="M 40.25 10.554688 C 39.152344 10.824219 38.058594 11.140625 37 11.5 L 38 14.460938 C 38.976562 14.132812 39.984375 13.835938 41 13.585938 Z M 40.25 10.554688 "/>
<path style=" stroke:none;fill-rule:nonzero;fill:rgb(0%,0%,0%);fill-opacity:1;" d="M 46.753906 9.503906 C 45.6875 9.585938 44.59375 9.71875 43.503906 9.890625 L 43.996094 12.976562 C 45.003906 12.816406 46.011719 12.695312 46.996094 12.621094 Z M 46.753906 9.503906 "/>
<path style=" stroke:none;fill-rule:nonzero;fill:rgb(0%,0%,0%);fill-opacity:1;" d="M 50 4.6875 C 62.105469 4.6875 73.484375 9.402344 82.039062 17.960938 C 82.625 18.546875 83.664062 18.546875 84.25 17.960938 L 87.5 14.710938 L 87.5 26.5625 L 75.648438 26.5625 L 78.726562 23.484375 C 79.335938 22.871094 79.335938 21.882812 78.726562 21.273438 C 71.054688 13.601562 60.851562 9.375 50 9.375 L 50 12.5 C 59.492188 12.5 68.449219 16.003906 75.390625 22.402344 L 70.769531 27.019531 C 70.324219 27.46875 70.1875 28.140625 70.429688 28.722656 C 70.671875 29.308594 71.242188 29.6875 71.875 29.6875 L 89.0625 29.6875 C 89.925781 29.6875 90.625 28.988281 90.625 28.125 L 90.625 10.9375 C 90.625 10.304688 90.242188 9.734375 89.660156 9.492188 C 89.074219 9.25 88.40625 9.382812 87.957031 9.832031 L 83.128906 14.664062 C 74.121094 6.203125 62.417969 1.5625 50 1.5625 C 23.292969 1.5625 1.5625 23.289062 1.5625 50 L 4.6875 50 C 4.6875 25.015625 25.015625 4.6875 50 4.6875 Z M 50 4.6875 "/>
<path style=" stroke:none;fill-rule:nonzero;fill:rgb(0%,0%,0%);fill-opacity:1;" d="M 79.25 78.195312 L 77 76.023438 C 73.558594 79.59375 69.523438 82.40625 65 84.382812 L 66.25 87.242188 C 71.148438 85.105469 75.523438 82.058594 79.25 78.195312 Z M 79.25 78.195312 "/>
<path style=" stroke:none;fill-rule:nonzero;fill:rgb(0%,0%,0%);fill-opacity:1;" d="M 59.75 89.445312 C 60.847656 89.175781 61.941406 88.859375 63 88.5 L 62 85.539062 C 61.023438 85.867188 60.015625 86.164062 59 86.414062 Z M 59.75 89.445312 "/>
<path style=" stroke:none;fill-rule:nonzero;fill:rgb(0%,0%,0%);fill-opacity:1;" d="M 53.246094 90.496094 C 54.3125 90.414062 55.40625 90.28125 56.496094 90.109375 L 56.003906 87.023438 C 54.996094 87.183594 53.988281 87.304688 53.003906 87.378906 Z M 53.246094 90.496094 "/>
<path style=" stroke:none;fill-rule:nonzero;fill:rgb(0%,0%,0%);fill-opacity:1;" d="M 95.3125 50 C 95.3125 74.984375 74.984375 95.3125 50 95.3125 C 37.894531 95.3125 26.515625 90.597656 17.960938 82.039062 C 17.375 81.453125 16.335938 81.453125 15.75 82.039062 L 12.5 85.289062 L 12.5 73.4375 L 24.351562 73.4375 L 21.273438 76.515625 C 20.664062 77.128906 20.664062 78.117188 21.273438 78.726562 C 28.945312 86.398438 39.148438 90.625 50 90.625 L 50 87.5 C 40.507812 87.5 31.550781 83.996094 24.609375 77.597656 L 29.230469 72.980469 C 29.675781 72.53125 29.8125 71.859375 29.570312 71.277344 C 29.328125 70.691406 28.757812 70.3125 28.125 70.3125 L 10.9375 70.3125 C 10.074219 70.3125 9.375 71.011719 9.375 71.875 L 9.375 89.0625 C 9.375 89.695312 9.757812 90.265625 10.339844 90.507812 C 10.921875 90.75 11.59375 90.613281 12.042969 90.167969 L 16.871094 85.335938 C 25.878906 93.796875 37.582031 98.4375 50 98.4375 C 76.707031 98.4375 98.4375 76.710938 98.4375 50 Z M 95.3125 50 "/>
<path style=" stroke:none;fill-rule:nonzero;fill:rgb(0%,0%,0%);fill-opacity:1;" d="M 76.5625 50 C 76.5625 35.351562 64.648438 23.4375 50 23.4375 C 35.351562 23.4375 23.4375 35.351562 23.4375 50 C 23.4375 64.648438 35.351562 76.5625 50 76.5625 C 64.648438 76.5625 76.5625 64.648438 76.5625 50 Z M 50 73.4375 C 37.078125 73.4375 26.5625 62.921875 26.5625 50 C 26.5625 37.078125 37.078125 26.5625 50 26.5625 C 62.921875 26.5625 73.4375 37.078125 73.4375 50 C 73.4375 62.921875 62.921875 73.4375 50 73.4375 Z M 50 73.4375 "/>
</g>
</svg>
