<?xml version="1.0" encoding="UTF-8"?>
<svg xmlns="http://www.w3.org/2000/svg" xmlns:xlink="http://www.w3.org/1999/xlink" width="100pt" height="100pt" viewBox="0 0 100 100" version="1.1">
<g id="surface1">
<path style=" stroke:none;fill-rule:nonzero;fill:rgb(0%,0%,0%);fill-opacity:1;" d="M 51.285156 54.554688 C 51.097656 54.511719 50.910156 54.507812 50.722656 54.535156 C 48.84375 54.316406 47.429688 52.726562 47.425781 50.835938 C 47.425781 49.933594 46.691406 49.199219 45.785156 49.199219 C 44.878906 49.199219 44.144531 49.933594 44.144531 50.835938 C 44.152344 53.992188 46.261719 56.757812 49.304688 57.589844 L 49.304688 59.230469 C 49.304688 60.136719 50.039062 60.871094 50.945312 60.871094 C 51.847656 60.871094 52.582031 60.136719 52.582031 59.230469 L 52.582031 57.691406 C 56.09375 56.957031 58.480469 53.683594 58.113281 50.117188 C 57.742188 46.550781 54.734375 43.835938 51.148438 43.835938 C 49.09375 43.835938 47.425781 42.167969 47.425781 40.113281 C 47.425781 38.058594 49.09375 36.390625 51.148438 36.390625 C 53.203125 36.390625 54.871094 38.058594 54.871094 40.113281 C 54.871094 41.019531 55.605469 41.753906 56.511719 41.753906 C 57.417969 41.753906 58.148438 41.019531 58.148438 40.113281 C 58.144531 36.800781 55.824219 33.945312 52.582031 33.261719 L 52.582031 31.765625 C 52.582031 30.863281 51.847656 30.128906 50.945312 30.128906 C 50.039062 30.128906 49.304688 30.863281 49.304688 31.765625 L 49.304688 33.359375 C 45.921875 34.285156 43.742188 37.570312 44.207031 41.042969 C 44.675781 44.519531 47.640625 47.117188 51.148438 47.113281 C 53.175781 47.113281 54.832031 48.738281 54.867188 50.765625 C 54.90625 52.796875 53.3125 54.480469 51.285156 54.554688 Z M 51.285156 54.554688 "/>
<path style=" stroke:none;fill-rule:nonzero;fill:rgb(0%,0%,0%);fill-opacity:1;" d="M 27.371094 45.601562 C 27.371094 58.734375 38.015625 69.378906 51.148438 69.378906 C 64.28125 69.378906 74.925781 58.734375 74.925781 45.601562 C 74.925781 32.46875 64.28125 21.824219 51.148438 21.824219 C 38.023438 21.839844 27.386719 32.476562 27.371094 45.601562 Z M 51.148438 25.105469 C 62.46875 25.105469 71.644531 34.28125 71.644531 45.601562 C 71.644531 56.921875 62.46875 66.097656 51.148438 66.097656 C 39.828125 66.097656 30.652344 56.921875 30.652344 45.601562 C 30.664062 34.285156 39.832031 25.117188 51.148438 25.105469 Z M 51.148438 25.105469 "/>
<path style=" stroke:none;fill-rule:nonzero;fill:rgb(0%,0%,0%);fill-opacity:1;" d="M 83.007812 73.421875 L 70.164062 79.488281 C 68.390625 76.191406 64.988281 74.089844 61.246094 73.984375 L 49.386719 73.660156 C 47.511719 73.605469 45.667969 73.128906 44 72.269531 L 42.792969 71.644531 C 36.613281 68.421875 29.253906 68.429688 23.082031 71.664062 L 23.15625 68.929688 C 23.179688 68.023438 22.46875 67.269531 21.5625 67.246094 L 8.5625 66.886719 C 7.65625 66.863281 6.902344 67.578125 6.878906 68.480469 L 6.089844 97.011719 C 6.066406 97.917969 6.78125 98.671875 7.6875 98.699219 L 20.6875 99.054688 L 20.730469 99.054688 C 21.621094 99.054688 22.347656 98.347656 22.371094 97.460938 L 22.410156 96.097656 L 25.789062 94.289062 C 27.113281 93.574219 28.664062 93.40625 30.109375 93.8125 L 50.28125 99.476562 C 50.316406 99.484375 50.351562 99.492188 50.386719 99.5 C 51.84375 99.808594 53.332031 99.960938 54.820312 99.957031 C 57.976562 99.960938 61.09375 99.28125 63.960938 97.964844 C 64.03125 97.933594 64.097656 97.894531 64.164062 97.851562 L 93.40625 78.9375 C 94.136719 78.464844 94.371094 77.507812 93.945312 76.753906 C 91.773438 72.898438 86.957031 71.433594 83.007812 73.421875 Z M 9.414062 95.464844 L 10.109375 70.210938 L 19.832031 70.480469 L 19.136719 95.734375 Z M 62.480469 95.035156 C 58.921875 96.644531 54.941406 97.085938 51.113281 96.304688 L 31 90.660156 C 28.734375 90.019531 26.3125 90.285156 24.238281 91.398438 L 22.511719 92.320312 L 22.976562 75.53125 C 28.445312 71.894531 35.460938 71.519531 41.285156 74.554688 L 42.492188 75.179688 C 44.601562 76.269531 46.925781 76.867188 49.296875 76.9375 L 61.15625 77.261719 C 64.484375 77.359375 67.316406 79.730469 67.992188 82.996094 L 50.328125 82.507812 C 49.421875 82.480469 48.667969 83.195312 48.644531 84.101562 C 48.621094 85.007812 49.332031 85.761719 50.238281 85.785156 L 69.730469 86.320312 L 69.773438 86.320312 C 70.664062 86.320312 71.390625 85.613281 71.414062 84.726562 C 71.433594 84.015625 71.378906 83.300781 71.253906 82.601562 L 84.429688 76.375 C 84.441406 76.371094 84.453125 76.363281 84.464844 76.355469 C 86.335938 75.410156 88.59375 75.726562 90.132812 77.148438 Z M 62.480469 95.035156 "/>
<path style=" stroke:none;fill-rule:nonzero;fill:rgb(0%,0%,0%);fill-opacity:1;" d="M 52.789062 17.214844 L 52.789062 1.640625 C 52.789062 0.734375 52.054688 0 51.148438 0 C 50.242188 0 49.507812 0.734375 49.507812 1.640625 L 49.507812 17.214844 C 49.507812 18.121094 50.242188 18.855469 51.148438 18.855469 C 52.054688 18.855469 52.789062 18.121094 52.789062 17.214844 Z M 52.789062 17.214844 "/>
<path style=" stroke:none;fill-rule:nonzero;fill:rgb(0%,0%,0%);fill-opacity:1;" d="M 65.085938 17.214844 L 65.085938 9.835938 C 65.085938 8.933594 64.351562 8.199219 63.445312 8.199219 C 62.539062 8.199219 61.804688 8.933594 61.804688 9.835938 L 61.804688 17.214844 C 61.804688 18.121094 62.539062 18.855469 63.445312 18.855469 C 64.351562 18.855469 65.085938 18.121094 65.085938 17.214844 Z M 65.085938 17.214844 "/>
<path style=" stroke:none;fill-rule:nonzero;fill:rgb(0%,0%,0%);fill-opacity:1;" d="M 40.492188 17.214844 L 40.492188 9.835938 C 40.492188 8.933594 39.757812 8.199219 38.851562 8.199219 C 37.945312 8.199219 37.210938 8.933594 37.210938 9.835938 L 37.210938 17.214844 C 37.210938 18.121094 37.945312 18.855469 38.851562 18.855469 C 39.757812 18.855469 40.492188 18.121094 40.492188 17.214844 Z M 40.492188 17.214844 "/>
</g>
</svg>
